# xmcd CD database file
#
# Track frame offsets:
#	150
#	12147
#	23777
#	34857
#	47280
#	60247
#	74065
#	84917
#	98042
#	112890
#	123487
#	132902
#
# Disc length: 1952 seconds
#
# Revision: 3
# Processed by: cddbd v1.5.2PL0 Copyright (c) Steve Scherf et al.
# Submitted via: CDex 1.51
#
DISCID=8e079e0c
DTITLE=Various Artist - Country Classics
DYEAR=2000
DGENRE=Country
TTITLE0=Johnny Cash - Ring Of Fire
TTITLE1=Willie Nelson - On The Road Again
TTITLE2=Roger Miller - King Of The Road
TTITLE3=Charlie Rich - The Most Beautiful Girl
TTITLE4=D.Parton/t.Wynette/L.Lynn - It Wasn`t God Who Made Honky Tonk Angels
TTITLE5=J.Cash/W.Nelson/W.Jennings//K.Kristofferson - Highwayman
TTITLE6=The Byrds - You`re Still On My Mind
TTITLE7=Lynn Anderson - Rose Garden
TTITLE8=George Jones - He Stopped Loving Her Today
TTITLE9=The Statler Brothers - Flowers On The Wall
TTITLE10=Frankie Lane with Jimmy Carroll and Orchestra - Rawhide
TTITLE11=Charlie Daniels - Layla
EXTD=YEAR: 2000
EXTT0=
EXTT1=
EXTT2=
EXTT3=
EXTT4=
EXTT5=
EXTT6=
EXTT7=
EXTT8=
EXTT9=
EXTT10=
EXTT11=
PLAYORDER=
